0
SECTION
2
HEADER
9
$INSUNITS
70
4
9
$ACADVER
1
AC1014
9
$HANDSEED
5
FFFF
0
ENDSEC
0
SECTION
2
TABLES
0
TABLE
2
VPORT
5
8
100
AcDbSymbolTable
0
ENDTAB
0
TABLE
2
LTYPE
5
5
100
AcDbSymbolTable
0
LTYPE
5
14
100
AcDbSymbolTableRecord
100
AcDbLinetypeTableRecord
2
BYBLOCK
70
0
0
LTYPE
5
15
100
AcDbSymbolTableRecord
100
AcDbLinetypeTableRecord
2
BYLAYER
70
0
0
LTYPE
5
16
100
AcDbSymbolTableRecord
100
AcDbLinetypeTableRecord
2
DASHED
70
0
3
Dashed __ __ __ __ __ __ __ __ __ __ __ __ __ _
72
65
73
2
40
0.75
49
0.5
74
0
49
-0.25
74
0
0
ENDTAB
0
TABLE
2
LAYER
5
2
100
AcDbSymbolTable
70
2
0
LAYER
5
50
100
AcDbSymbolTableRecord
100
AcDbLayerTableRecord
2
0
70
0
62
7
6
CONTINUOUS
0
ENDTAB
0
TABLE
2
STYLE
5
3
100
AcDbSymbolTable
70
1
0
STYLE
5
11
100
AcDbSymbolTableRecord
100
AcDbTextStyleTableRecord
2
STANDARD
70
0
0
ENDTAB
0
TABLE
2
VIEW
5
6
100
AcDbSymbolTable
70
0
0
ENDTAB
0
TABLE
2
UCS
5
7
100
AcDbSymbolTable
70
0
0
ENDTAB
0
TABLE
2
APPID
5
9
100
AcDbSymbolTable
70
2
0
APPID
5
12
100
AcDbSymbolTableRecord
100
AcDbRegAppTableRecord
2
ACAD
70
0
0
ENDTAB
0
TABLE
2
DIMSTYLE
5
A
100
AcDbSymbolTable
70
1
0
ENDTAB
0
TABLE
2
BLOCK_RECORD
5
1
100
AcDbSymbolTable
70
1
0
BLOCK_RECORD
5
1F
100
AcDbSymbolTableRecord
100
AcDbBlockTableRecord
2
*MODEL_SPACE
0
BLOCK_RECORD
5
1B
100
AcDbSymbolTableRecord
100
AcDbBlockTableRecord
2
*PAPER_SPACE
0
ENDTAB
0
ENDSEC
0
SECTION
2
BLOCKS
0
BLOCK
5
20
100
AcDbEntity
100
AcDbBlockBegin
2
*MODEL_SPACE
0
ENDBLK
5
21
100
AcDbEntity
100
AcDbBlockEnd
0
BLOCK
5
1C
100
AcDbEntity
100
AcDbBlockBegin
2
*PAPER_SPACE
0
ENDBLK
5
1D
100
AcDbEntity
100
AcDbBlockEnd
0
ENDSEC
0
SECTION
2
ENTITIES
0
CIRCLE
5
100
100
AcDbEntity
8
0
100
AcDbCircle
10
-16.046684883010506
20
18.689718625761024
30
0
40
1.2000000000000011
210
0
220
-0
230
1
0
CIRCLE
5
101
100
AcDbEntity
8
0
100
AcDbCircle
10
-46.046684883014706
20
18.68971862575194
30
0
40
1.2000000000000011
210
0
220
-0
230
1
0
CIRCLE
5
102
100
AcDbEntity
8
0
100
AcDbCircle
10
-26.561403508790143
20
63.224999999994857
30
0
40
1.6000000000000014
210
0
220
-0
230
1
0
CIRCLE
5
103
100
AcDbEntity
8
0
100
AcDbCircle
10
13.953315116989497
20
35.660281374238188
30
0
40
1.1999999999999988
210
0
220
-0
230
1
0
CIRCLE
5
104
100
AcDbEntity
8
0
100
AcDbCircle
10
11.438596491228115
20
63.22499999999998
30
0
40
1.6000000000000003
210
0
220
-0
230
1
0
CIRCLE
5
105
100
AcDbEntity
8
0
100
AcDbCircle
10
-29.076122134542093
20
35.660281374233087
30
0
40
1.2000000000000011
210
0
220
-0
230
1
0
CIRCLE
5
106
100
AcDbEntity
8
0
100
AcDbCircle
10
-16.046684883010506
20
35.660281374238203
30
0
40
1.2000000000000011
210
0
220
-0
230
1
0
CIRCLE
5
107
100
AcDbEntity
8
0
100
AcDbCircle
10
0.92387786546667372
20
35.660281374238203
30
0
40
1.2000000000000011
210
0
220
-0
230
1
0
CIRCLE
5
108
100
AcDbEntity
8
0
100
AcDbCircle
10
-7.5614035087719191
20
27.174999999999613
30
0
40
5.25
210
0
220
-0
230
1
0
CIRCLE
5
109
100
AcDbEntity
8
0
100
AcDbCircle
10
30.923877865466661
20
18.689718625761046
30
0
40
1.2000000000000011
210
0
220
-0
230
1
0
CIRCLE
5
110
100
AcDbEntity
8
0
100
AcDbCircle
10
22.438596491228079
20
27.174999999999617
30
0
40
7.549999999999998
210
0
220
-0
230
1
0
CIRCLE
5
111
100
AcDbEntity
8
0
100
AcDbCircle
10
-37.561403508778398
20
27.174999999992515
30
0
40
7.549999999999998
210
0
220
-0
230
1
0
CIRCLE
5
112
100
AcDbEntity
8
0
100
AcDbCircle
10
0.92387786546667217
20
18.689718625761024
30
0
40
1.2
210
0
220
0
230
1
0
LWPOLYLINE
5
113
100
AcDbEntity
8
0
100
AcDbPolyline
90
24
70
1
43
0.0
10
10.933986335544352
20
11.841251858836676
42
0.46183192797090611
10
14.570145554494369
20
9.0767334079204751
10
25.856033155939283
20
11.544225014648612
42
0.87125695678611059
10
23.390356451840105
20
43.146667194672077
42
-0.54242815531972111
10
15.100383729043312
20
57.718068649823095
42
0.11975993871651702
10
16.438596491228111
20
63.22499999999998
42
0.25142507452921414
10
14.201754385964943
20
67.392128321608709
10
1.0043859649123088
20
76.143097796987007
42
0.30142022646576422
10
-16.127192982472533
20
76.143097796976093
10
-29.324561403528246
20
67.39212832160284
42
0.25142507452913604
10
-31.561403508790139
20
63.224999999994857
42
0.1197599387165474
10
-30.223190746603542
20
57.718068649817049
42
-0.54242815531970134
10
-38.513163469395728
20
43.146667194663763
42
0.87125695678603488
10
-40.978840173487157
20
11.544225014640556
10
-29.692952572037843
20
9.0767334079136415
42
0.46183192797116274
10
-26.056793353088427
20
11.84125185883336
42
-0.97265445146995522
10
-20.061403508771946
20
11.674999999999478
10
-20.061403508772038
20
9.3858979313397661
42
0.35248516984534811
10
-17.702172883404966
20
6.4551276215861559
10
-11.512814652346343
20
5.1019164231868475
42
0.10804150914084659
10
-3.6099923652000028
20
5.1019164231879106
10
2.5793658658595886
20
6.455127621589182
42
0.35248516984527162
10
4.9385964912258684
20
9.3858979313426172
10
4.9385964912280427
20
11.674999999999351
42
-0.97265445146942708
0
CIRCLE
5
114
100
AcDbEntity
8
0
100
AcDbCircle
10
7.9385964912280818
20
42.674999999999457
30
0
40
3.0000000000000004
210
0
220
-0
230
1
0
CIRCLE
5
115
100
AcDbEntity
8
0
100
AcDbCircle
10
-23.061403508771914
20
42.674999999999486
30
0
40
2.9999999999999982
210
0
220
-0
230
1
0
CIRCLE
  8
0
 10
0.4386
 20
27.175
 30
0.0
 40
1.75
  0
CIRCLE
  8
0
 10
-7.5614
 20
35.175
 30
0.0
 40
1.75
  0
CIRCLE
  8
0
 10
-15.5614
 20
27.175
 30
0.0
 40
1.75
  0
CIRCLE
  8
0
 10
-7.5614
 20
19.175
 30
0.0
 40
1.75
  0
ENDSEC
0
SECTION
2
OBJECTS
0
DICTIONARY
5
C
100
AcDbDictionary
3
ACAD_GROUP
350
D
3
ACAD_MLINESTYLE
350
17
0
DICTIONARY
5
D
100
AcDbDictionary
0
DICTIONARY
5
1A
330
C
100
AcDbDictionary
0
DICTIONARY
5
17
100
AcDbDictionary
0
ENDSEC
0
EOF
